PathFileType	4	(X/Y/Z)	C:/Users/beibeiliu/ov580/test_trc/User3\sequence.16_training_dense_right.trc
DataRate	CameraRate	NumFrames	NumMarkers	Units	OrigDataRate	OrigDataStartFrame	OrigNumFrames
120	120	16	19	mm	120	67	266
Frame#	Time	ThumbCMC			ThumbMCP			ThumbIP			ThumbTip			IndexMCP			IndexPIP			IndexTip			MiddleMCP			MiddlePIP			MiddleTip			RingMCP			RingPIP			RingTip			PinkyMCP			PinkyPIP			PinkyTip			BackHand1			BackHand2			BackHand3	
		X0	Y0	Z0	X1	Y1	Z1	X2	Y2	Z2	X3	Y3	Z3	X4	Y4	Z4	X5	Y5	Z5	X6	Y6	Z6	X7	Y7	Z7	X8	Y8	Z8	X9	Y9	Z9	X10	Y10	Z10	X11	Y11	Z11	X12	Y12	Z12	X13	Y13	Z13	X14	Y14	Z14	X15	Y15	Z15	X16	Y16	Z16	X17	Y17	Z17	X18	Y18	Z18	
66	0.55	189.396	2.42497	-0.937701	171.126	2.1123	-28.1445	158.572	-2.67066	-58.6337	146.271	-17.9849	-71.747	192.555	-38.7835	-67.0885	173.413	-37.104	-90.0838	140.967	-25.0594	-90.8775	183.813	-55.3959	-65.2819	154.197	-48.3103	-80.8002	129.032	-27.75	-55.9152	173.919	-69.8472	-56.7663	144.542	-61.1773	-65.3316	131.519	-41.0193	-46.9257	169.161	-80.8316	-37.1463	148.001	-76.3875	-51.4214	127.586	-54.7555	-38.0852	202.601	-66.2357	-4.7194	202.883	-55.9406	26.091	213.749	-29.7265	1.90768	
67	0.558333	187.431	-0.517683	-2.05599	168.943	-4.50567	-30.3461	156.984	-14.6079	-57.3581	144.422	-25.7405	-72.8519	194.15	-44.5766	-66.4351	171.986	-44.542	-89.4631	141.654	-38.4965	-89.438	185.105	-59.5953	-68.5734	157.276	-58.7432	-80.1602	129.776	-41.0002	-60.3445	180.554	-76.6813	-50.7218	152.305	-72.4903	-65.465	132.927	-53.0897	-46.6646	173.175	-89.0862	-33.9515	149.652	-81.1914	-51.6288	130.671	-65.4248	-39.449	206.546	-65.5875	-1.24211	206.902	-58.6916	30.1811	215.831	-29.8919	-1.51247	
68	0.566667	182.774	-5.7236	-1.3002	165.569	-10.9205	-27.5385	151.281	-17.3502	-57.9026	142.084	-34.51	-72.9399	195.085	-47.6068	-63.4682	173.833	-54.75	-86.1199	143.554	-46.4337	-89.6957	187.436	-69.2409	-66.6092	159.916	-68.1566	-78.2036	129.471	-52.7265	-59.5605	183.708	-83.6424	-50.355	156.327	-80.3771	-63.8863	133.287	-60.8421	-45.056	178.965	-93.3755	-33.986	158.758	-92.0871	-48.0876	134.414	-72.2654	-38.3012	210.531	-65.2874	-0.756684	209.723	-59.74	27.194	214.346	-35.0112	0.371514	
69	0.575	179.796	-14.2815	-2.3361	161.631	-16.6974	-27.1331	148.852	-27.6316	-57.1775	139.385	-42.7541	-68.7144	192.416	-49.2165	-68.2692	171.017	-57.1229	-87.0576	141.269	-55.2179	-88.4002	190.083	-69.7908	-64.9111	160.699	-72.3341	-78.908	129.364	-64.9273	-56.312	187.651	-85.4973	-48.5639	160.04	-86.6975	-62.5023	134.531	-74.8585	-40.7544	183.704	-95.4004	-35.2593	160.703	-102.015	-44.6619	138.265	-85.8374	-34.8779	212.908	-69.2997	-2.31433	211.804	-55.0096	28.7778	211.059	-30.0348	2.69355	
70	0.583333	174.776	-16.3362	0.913102	156.403	-23.0087	-27.5471	142.486	-31.6937	-55.314	135.931	-51.4193	-68.8956	189.013	-55.4533	-66.7297	167.401	-61.9025	-85.9513	134.031	-61.1625	-85.1111	190.151	-75.1623	-62.0987	162.03	-77.0166	-78.4265	130.077	-73.4257	-56.5971	188.162	-85.5325	-48.8413	160.642	-92.4763	-61.5967	135.346	-79.2479	-42.4772	186.816	-98.7038	-34.6107	160.375	-103.67	-43.8935	141.077	-90.0268	-34.638	212.146	-69.5364	-3.23718	211.918	-58.1952	25.0741	211.3	-32.5284	0.418984	
71	0.591667	170.239	-18.8349	0.77437	149.652	-23.0112	-25.2614	139.702	-41.2419	-50.6311	131.966	-60.3257	-66.8572	186.342	-53.7457	-65.0521	162.908	-68.6809	-82.3489	134.883	-68.6113	-82.767	186.503	-73.2263	-65.3025	159.93	-81.9497	-76.7338	126.243	-76.1257	-51.3464	187.5	-88.0904	-49.3878	161.504	-99.5822	-55.8965	135.08	-85.0338	-35.1757	188.691	-100.81	-29.7229	165.698	-106.442	-42.5656	144.321	-95.4003	-28.4481	214.875	-66.6999	-0.700462	212.339	-54.4346	29.532	204.744	-30.3813	3.52004	
72	0.6	165.025	-20.082	6.0602	144.902	-29.4064	-24.1624	134.516	-45.6116	-47.6101	128.859	-65.6764	-61.0635	182.539	-54.6395	-60.8548	157.813	-71.9207	-81.092	129.163	-78.0799	-75.7558	184.303	-74.8811	-62.3247	156.416	-89.3488	-71.7008	126.923	-84.3386	-49.3739	188.352	-87.2962	-47.1851	158.486	-99.2318	-55.2294	138.135	-92.6257	-29.0425	190.533	-98.9759	-28.9627	163.104	-107.256	-38.2148	143.207	-97.2373	-17.8426	213.725	-63.5915	-1.80107	213.703	-55.8306	24.5842	200.629	-28.581	-1.93185	
73	0.608333	159.436	-23.2618	4.14105	135.954	-30.2402	-20.1111	127.697	-49.3894	-42.3453	123.885	-68.0906	-56.9717	175.005	-54.7913	-62.176	152.003	-69.9197	-80.2718	126.121	-82.0817	-74.5469	180.195	-73.9198	-61.5546	155.487	-90.2424	-69.4906	125.718	-90.6086	-43.6139	186.301	-86.0366	-46.3725	158.822	-105.861	-50.5374	139.528	-95.9097	-24.6133	190.634	-100.308	-28.0308	165.032	-113.167	-33.2368	144.797	-99.7855	-12.3705	208.843	-59.9522	-5.10931	210.492	-50.1474	26.2506	194.355	-26.6053	1.50625	
74	0.616667	151.721	-26.8258	8.52718	132.045	-38.8474	-17.0861	121.642	-54.4229	-37.7776	120.537	-75.2634	-52.5869	167.015	-55.646	-60.2352	145.576	-76.323	-76.9617	123.759	-91.952	-66.8935	174.412	-74.5389	-60.2058	150.396	-96.135	-64.281	126.885	-99.1479	-36.6783	184.761	-86.296	-45.1389	156.577	-107.773	-44.8837	141.339	-100.765	-20.9154	191.255	-98.9569	-28.1453	164.559	-113.566	-31.1768	148.018	-100.697	-10.084	207.671	-58.8521	-5.94648	207.881	-46.4294	26.2726	188.5	-26.4491	-1.79647	
75	0.625	143.527	-29.7549	10.6817	122.779	-42.1913	-10.7454	113.096	-59.5817	-32.9689	113.295	-81.4499	-52.4843	157.994	-58.204	-59.5875	139.941	-80.02	-72.4709	116.737	-96.658	-62.7695	169.025	-70.8343	-57.5369	144.352	-97.3941	-61.6198	126.45	-101.36	-25.2984	179.303	-88.8895	-46.7614	158.072	-107.177	-45.6777	143.482	-101.273	-14.6869	191.667	-95.6136	-27.6787	170.856	-114.836	-30.5393	151.019	-106.066	-5.75088	203.578	-53.7102	-6.20813	203.25	-42.8343	25.11	179.385	-22.6536	-1.09345	
76	0.633333	136.968	-32.0695	15.2541	116.99	-48.5879	-10.8997	108.817	-66.8391	-29.7843	107.291	-87.3863	-46.3755	153.353	-58.7462	-54.3302	132.767	-81.7676	-69.8274	114.118	-106.377	-53.6082	162.337	-73.6679	-56.641	142.464	-102.059	-56.7145	125.744	-104.28	-22.7546	174.76	-84.6755	-43.1988	154.107	-110.826	-37.9938	142.921	-102.982	-9.41596	187.77	-92.9522	-27.6051	169.203	-113.855	-28.3571	149.384	-104.846	-3.57135	195.587	-47.6425	-2.40551	201.622	-39.3705	21.9604	172.202	-22.5155	5.44041	
77	0.641667	130.505	-33.1004	17.1702	113.484	-52.0581	-2.08807	102.961	-69.9611	-24.0323	104.631	-92.7505	-39.5446	141.186	-61.2532	-56.2921	126.127	-86.8004	-64.0034	111.304	-109.451	-48.7211	156.427	-76.9853	-53.3894	135.75	-101.529	-53.0692	125.55	-107.807	-15.2487	170.7	-91.0597	-42.3616	150.208	-109.544	-36.1443	138.333	-104.207	-6.43351	185.968	-96.2893	-24.3454	164.88	-115.533	-20.5071	150.643	-103.371	5.26142	190.212	-47.9631	-4.84699	195.775	-39.1373	22.6155	167.123	-25.3531	4.61353	
78	0.65	125.821	-32.6318	21.9901	105.751	-51.5645	3.48328	96.5582	-74.5129	-23.0897	106.479	-96.4415	-33.1278	137.523	-62.5061	-47.852	118.653	-88.1451	-60.2044	105.297	-111.266	-43.0132	151.525	-76.1123	-47.892	134.111	-106.52	-46.5595	120.559	-108.743	-10.1608	165.451	-91.0452	-37.0797	147.482	-114.585	-27.4976	136.766	-103.295	1.29666	178.651	-99.1111	-22.7555	161.606	-116.929	-15.5169	145.316	-104.15	7.5523	186.152	-45.6326	-3.25696	189.438	-32.8478	25.3634	161.071	-25.1041	5.32284	
79	0.658333	121.581	-32.9782	22.901	100.742	-51.3002	4.74701	94.3863	-72.8576	-11.4283	102.386	-95.7056	-25.4725	127.549	-65.6406	-48.2118	114.103	-94.0597	-53.7851	95.2924	-109.977	-36.4513	142.633	-77.3322	-45.6434	125.285	-106.098	-42.5301	113.945	-106.478	-0.724996	158.198	-87.6049	-33.111	139.001	-113.737	-24.0028	131.954	-100.578	7.20992	174.02	-99.8336	-19.483	152.076	-113.64	-13.2456	141.556	-101.31	15.5696	181.06	-44.9275	-1.38021	184.595	-32.6046	23.1498	154.535	-23.5106	8.34762	
80	0.666667	119.226	-30.2841	25.7119	97.1574	-51.6932	6.12781	88.7658	-73.6981	-10.1767	93.0524	-98.1004	-21.8538	125.18	-67.8675	-44.7642	105.684	-93.0665	-49.7315	89.8726	-110.853	-29.7018	137.5	-81.5391	-42.1313	119.923	-108.926	-36.1206	107.459	-106.418	1.46717	153.059	-89.5685	-30.5533	133.791	-112.649	-20.8924	125.185	-100.739	10.6314	166.012	-97.8179	-16.7154	145.604	-114.892	-4.22478	138.388	-95.9404	20.305	175.834	-45.0298	-1.03707	181.915	-33.7642	24.8016	151.179	-23.2269	9.26785	
81	0.675	117.072	-29.3633	27.4382	95.0273	-50.0134	11.6905	84.0908	-72.1791	-5.36631	93.4639	-95.1045	-13.9836	116.656	-66.0044	-42.0207	98.4037	-91.9703	-44.5275	82.2199	-109.562	-22.529	132.846	-84.882	-40.3905	112.899	-109.042	-28.4536	102.999	-103.663	7.26778	147.398	-93.0844	-27.6536	125.663	-112.706	-13.8457	124.212	-99.6187	17.9027	159.9	-100.442	-12.9905	140.998	-114.535	1.6594	133.174	-96.201	24.3359	173.889	-46.0699	1.93079	183.795	-34.3613	26.7549	152.767	-24.6775	9.1712	
